<svg id="Capa_1" data-name="Capa 1" xmlns="http://www.w3.org/2000/svg" viewBox="0 0 16 16"><defs><style>.cls-1{fill:#1b95d8;}</style></defs><title>favicon</title><path class="cls-1" d="M10.38,7.16H7.94A.21.21,0,0,1,7.73,7V4.51a.21.21,0,0,0-.21-.21H6.25A.21.21,0,0,0,6,4.51V7a.21.21,0,0,1-.21.21H3.4a.21.21,0,0,0-.21.21V8.64a.21.21,0,0,0,.21.21H5.84A.21.21,0,0,1,6,9v2.44a.21.21,0,0,0,.21.21H7.53a.21.21,0,0,0,.21-.21V9a.21.21,0,0,1,.21-.21h2.44a.21.21,0,0,0,.21-.21V7.36A.21.21,0,0,0,10.38,7.16Z"/><path class="cls-1" d="M7.53,2.52l3,2.66a.21.21,0,0,0,.14.05H12.6A.21.21,0,0,0,12.81,5V2.53a.21.21,0,0,0-.21-.21h-5A.1.1,0,0,0,7.53,2.52Z"/><path class="cls-1" d="M7.53,13.48l3-2.66a.21.21,0,0,1,.14-.05H12.6a.21.21,0,0,1,.21.21v2.49a.21.21,0,0,1-.21.21h-5A.1.1,0,0,1,7.53,13.48Z"/></svg>